<svg width="115" height="41" viewBox="0 0 115 41" fill="none" xmlns="http://www.w3.org/2000/svg">
<g clip-path="url(#clip0_6_630)">
<path d="M25.9567 21.8971C25.4722 23.302 25.0414 24.5459 24.6155 25.7915C23.8367 28.068 23.071 30.3493 22.2663 32.6161C22.1785 32.8616 21.8826 33.2112 21.681 33.2128C18.4344 33.2502 15.1895 33.2388 11.8047 33.2388C12.151 32.2144 12.4599 31.2811 12.7818 30.3526C15.1716 23.4825 17.5695 16.6156 19.948 9.74062C20.1138 9.26418 20.33 9.06905 20.8633 9.07231C24.4919 9.09832 28.1222 9.09344 31.7508 9.07718C32.2158 9.07556 32.4694 9.18288 32.6401 9.66257C35.3664 17.3327 38.1139 24.9947 40.8549 32.66C40.9086 32.8096 40.9346 32.9689 40.9931 33.2014C40.6842 33.2177 40.4257 33.2421 40.1672 33.2421C37.0263 33.2453 33.8838 33.2258 30.7429 33.2584C30.1413 33.2649 29.9056 33.0502 29.7186 32.5071C28.592 29.2338 27.4296 25.9736 26.277 22.7085C26.2006 22.4922 26.1095 22.2824 25.9567 21.8954V21.8971ZM26.0461 21.8011C24.6984 18.0384 23.3767 14.344 21.9769 10.4366C20.6129 14.37 19.3367 18.0514 18.0361 21.8011H26.0445H26.0461Z" fill="#1A4FFF"/>
</g>
<path d="M92.51 31.6395C91.1032 32.5426 89.6583 32.9941 88.1754 32.9941C86.5974 32.9941 85.2048 32.6567 83.9976 31.9818C82.7999 31.2973 81.8588 30.361 81.1744 29.1728C80.4994 27.9751 80.162 26.6062 80.162 25.0663C80.162 23.3837 80.4947 21.9198 81.1601 20.6746C81.8255 19.4293 82.7428 18.4645 83.912 17.7801C85.0813 17.0861 86.4263 16.7392 87.9473 16.7392C89.5632 16.7392 90.9368 17.1194 92.068 17.8799C93.1992 18.6403 94.0357 19.7097 94.5776 21.0881C95.1194 22.4664 95.3095 24.0872 95.1479 25.9503H91.3123V24.5244C91.3123 22.956 91.0604 21.8295 90.5566 21.1451C90.0623 20.4512 89.2496 20.1042 88.1184 20.1042C86.7971 20.1042 85.8227 20.5082 85.1953 21.3162C84.5774 22.1147 84.2685 23.2982 84.2685 24.8666C84.2685 26.302 84.5774 27.4142 85.1953 28.2032C85.8227 28.9827 86.74 29.3724 87.9473 29.3724C88.7077 29.3724 89.3589 29.2061 89.9007 28.8734C90.4425 28.5406 90.856 28.0606 91.1412 27.4332H95.2049C94.8247 29.3344 93.9264 30.7365 92.51 31.6395ZM93.28 23.07V25.9503H83.0708V23.07H84.297L84.1687 24.3819H84.625C84.6725 23.9541 84.8531 23.6309 85.1668 23.4123C85.4805 23.1841 85.9035 23.07 86.4358 23.07H93.28Z" fill="white"/>
<path d="M76.1731 31.6395C75.0324 32.5426 73.4544 32.9941 71.4392 32.9941C69.5 32.9941 67.9316 32.5569 66.7338 31.6823C65.5456 30.7983 64.7994 29.3534 64.4952 27.3477H68.5304C68.692 28.0701 69.0485 28.6357 69.5998 29.0445C70.1607 29.4532 70.8689 29.6576 71.7244 29.6576C72.4278 29.6576 72.9696 29.5245 73.3499 29.2583C73.7301 28.9827 73.9202 28.6024 73.9202 28.1176C73.9202 27.8135 73.8442 27.5711 73.6921 27.3904C73.54 27.2003 73.1978 27.015 72.6655 26.8344C72.1426 26.6537 71.3251 26.4161 70.213 26.1214C68.9582 25.7982 67.9553 25.437 67.2044 25.0378C66.4534 24.6385 65.9116 24.1632 65.5789 23.6119C65.2462 23.051 65.0798 22.3761 65.0798 21.5871C65.0798 20.5985 65.3317 19.743 65.8355 19.0206C66.3393 18.2886 67.0475 17.7278 67.9601 17.338C68.8821 16.9388 69.9658 16.7392 71.2111 16.7392C72.4183 16.7392 73.4877 16.9245 74.4193 17.2953C75.3509 17.666 76.1018 18.1936 76.6722 18.878C77.252 19.5624 77.6132 20.608 77.7558 22.0149H73.7776C73.7111 21.4446 73.4639 20.993 73.0362 20.6603C72.6084 20.3276 72.0286 20.1328 71.2966 20.0757C70.5837 20.0282 70.0086 20.1232 69.5713 20.3609C69.1436 20.5985 68.9297 20.9407 68.9297 21.3875C68.9297 21.6537 69.02 21.8771 69.2006 22.0577C69.3907 22.2383 69.7757 22.4237 70.3555 22.6138C70.9449 22.8039 71.8385 23.051 73.0362 23.3552C74.2054 23.6594 75.1417 24.0159 75.8452 24.4246C76.5581 24.8239 77.0762 25.3087 77.3994 25.879C77.7226 26.4399 77.8842 27.1195 77.8842 27.918C77.8842 29.496 77.3138 30.7365 76.1731 31.6395Z" fill="white"/>
<path d="M61.1471 11.6061V15.0282H57.2687V11.6061H61.1471ZM61.1471 17.167V32.5664H57.2687V17.167H61.1471Z" fill="white"/>
<path d="M49.1526 23.6402L49.1383 32.5662H45.2314V17.1667H48.6535V17.8511C48.6535 18.3074 48.606 18.7685 48.511 19.2342C48.4159 19.6905 48.2781 20.2561 48.0975 20.931H48.4254C48.9292 19.4957 49.3237 18.5736 49.6089 18.1648C49.9036 17.7561 50.2505 17.4804 50.6498 17.3378C51.049 17.1952 51.5243 17.124 52.0756 17.124H54.2715V20.6886L51.7334 20.7029C50.7733 20.6934 50.1032 20.893 49.7229 21.3018C49.3047 21.7485 49.1146 22.528 49.1526 23.6402Z" fill="white"/>
<path d="M103.307 8.90533V14.9101H102.173V8.90533H103.307Z" fill="#A7ADBE"/>
<path d="M99.7577 14.7433C99.3908 14.9379 98.9654 15.0352 98.4817 15.0352C97.998 15.0352 97.5726 14.9379 97.2057 14.7433C96.8387 14.546 96.5524 14.2694 96.3467 13.9135C96.1409 13.5577 96.0381 13.1393 96.0381 12.6583V8.91367L97.189 8.90533V12.65C97.189 12.8474 97.2224 13.0267 97.2891 13.1879C97.3558 13.3492 97.4475 13.4882 97.5643 13.6049C97.6838 13.7217 97.8215 13.812 97.9771 13.876C98.1356 13.9371 98.3038 13.9677 98.4817 13.9677C98.6652 13.9677 98.8348 13.9358 98.9905 13.8718C99.1489 13.8079 99.2865 13.7175 99.4033 13.6008C99.52 13.484 99.6104 13.345 99.6743 13.1838C99.7411 13.0225 99.7744 12.8446 99.7744 12.65V8.90533H100.925V12.6583C100.925 13.1393 100.822 13.5577 100.617 13.9135C100.411 14.2694 100.125 14.546 99.7577 14.7433Z" fill="#A7ADBE"/>
<defs>
<clipPath id="clip0_6_630">
<rect width="29.1901" height="24.186" fill="white" transform="translate(11.8047 9.07251)"/>
</clipPath>
</defs>
</svg>
