<svg width="138" height="32" viewBox="0 0 138 32" fill="none" xmlns="http://www.w3.org/2000/svg">
<g clip-path="url(#clip0_7_724)">
<path d="M19.1419 3.5H8.85813C5.90006 3.5 3.5 5.89812 3.5 8.85813V18.2035C3.5 21.1635 5.90006 23.5616 8.85813 23.5616H19.1419C22.1019 23.5616 24.5 21.1635 24.5 18.2035V8.85813C24.5 5.89812 22.1019 3.5 19.1419 3.5ZM17.3867 17.1087C12.8183 21.4029 7.71313 23.3917 5.98115 21.5497C4.2511 19.7076 6.55075 14.7337 11.1172 10.4395C15.6856 6.14527 20.7908 4.15649 22.5209 5.99853C24.2528 7.83864 21.9532 12.8125 17.3867 17.1067V17.1087Z" fill="#141414"/>
</g>
<path d="M55.6477 14.0909C55.6477 16.4418 55.2074 18.4553 54.3267 20.1314C53.4531 21.8004 52.2599 23.0788 50.7472 23.9666C49.2415 24.8544 47.5334 25.2983 45.6229 25.2983C43.7124 25.2983 42.0007 24.8544 40.4879 23.9666C38.9822 23.0717 37.7891 21.7898 36.9084 20.1207C36.0348 18.4446 35.598 16.4347 35.598 14.0909C35.598 11.7401 36.0348 9.73011 36.9084 8.06108C37.7891 6.38494 38.9822 5.10298 40.4879 4.2152C42.0007 3.32741 43.7124 2.88352 45.6229 2.88352C47.5334 2.88352 49.2415 3.32741 50.7472 4.2152C52.2599 5.10298 53.4531 6.38494 54.3267 8.06108C55.2074 9.73011 55.6477 11.7401 55.6477 14.0909ZM51.674 14.0909C51.674 12.4361 51.4148 11.0405 50.8963 9.90412C50.3849 8.76065 49.6747 7.89773 48.7656 7.31534C47.8565 6.72585 46.8089 6.43111 45.6229 6.43111C44.4368 6.43111 43.3892 6.72585 42.4801 7.31534C41.571 7.89773 40.8572 8.76065 40.3388 9.90412C39.8274 11.0405 39.5717 12.4361 39.5717 14.0909C39.5717 15.7457 39.8274 17.1449 40.3388 18.2884C40.8572 19.4247 41.571 20.2876 42.4801 20.8771C43.3892 21.4595 44.4368 21.7507 45.6229 21.7507C46.8089 21.7507 47.8565 21.4595 48.7656 20.8771C49.6747 20.2876 50.3849 19.4247 50.8963 18.2884C51.4148 17.1449 51.674 15.7457 51.674 14.0909ZM59.214 25V8.63636H62.9V11.4169H63.0918C63.4327 10.4794 63.9973 9.74787 64.7857 9.2223C65.574 8.68963 66.5151 8.4233 67.6088 8.4233C68.7168 8.4233 69.6507 8.69318 70.4107 9.23295C71.1777 9.76562 71.7175 10.4936 72.03 11.4169H72.2005C72.5627 10.5078 73.1735 9.78338 74.0328 9.24361C74.8993 8.69673 75.9256 8.4233 77.1117 8.4233C78.6174 8.4233 79.8461 8.89915 80.7978 9.85085C81.7495 10.8026 82.2253 12.1911 82.2253 14.0163V25H78.3581V14.6129C78.3581 13.5973 78.0882 12.8551 77.5485 12.3864C77.0087 11.9105 76.3482 11.6726 75.5669 11.6726C74.6365 11.6726 73.9086 11.9638 73.383 12.5462C72.8645 13.1214 72.6053 13.8707 72.6053 14.794V25H68.8233V14.4531C68.8233 13.608 68.5676 12.9332 68.0563 12.429C67.552 11.9247 66.8915 11.6726 66.0748 11.6726C65.5208 11.6726 65.0165 11.8146 64.562 12.0987C64.1074 12.3757 63.7452 12.7699 63.4753 13.2812C63.2054 13.7855 63.0705 14.375 63.0705 15.0497V25H59.214ZM93.3821 25.3196C91.7415 25.3196 90.3246 24.9787 89.1314 24.2969C87.9453 23.608 87.0327 22.6349 86.3935 21.3778C85.7543 20.1136 85.4347 18.6257 85.4347 16.9141C85.4347 15.2308 85.7543 13.7536 86.3935 12.4822C87.0398 11.2038 87.9418 10.2095 89.0994 9.49929C90.2571 8.78196 91.6172 8.4233 93.1797 8.4233C94.1882 8.4233 95.1399 8.58665 96.0348 8.91335C96.9368 9.23295 97.7322 9.73011 98.4212 10.4048C99.1172 11.0795 99.6641 11.9389 100.062 12.983C100.46 14.0199 100.658 15.2557 100.658 16.6903V17.8729H87.2457V15.2734H96.9616C96.9545 14.5348 96.7947 13.8778 96.4822 13.3026C96.1697 12.7202 95.733 12.2621 95.1719 11.9283C94.6179 11.5945 93.9716 11.4276 93.233 11.4276C92.4446 11.4276 91.7521 11.6193 91.1555 12.0028C90.5589 12.3793 90.0938 12.8764 89.7599 13.4943C89.4332 14.1051 89.2663 14.7763 89.2592 15.5078V17.777C89.2592 18.7287 89.4332 19.5455 89.7812 20.2273C90.1293 20.902 90.6158 21.4205 91.2408 21.7827C91.8658 22.1378 92.5973 22.3153 93.4354 22.3153C93.9964 22.3153 94.5043 22.2372 94.9588 22.081C95.4134 21.9176 95.8075 21.6797 96.1413 21.3672C96.4751 21.0547 96.7273 20.6676 96.8977 20.206L100.499 20.6108C100.271 21.5625 99.8381 22.3935 99.1989 23.1037C98.5668 23.8068 97.7571 24.3537 96.7699 24.7443C95.7827 25.1278 94.6534 25.3196 93.3821 25.3196ZM111.037 31.4773C109.653 31.4773 108.463 31.2891 107.469 30.9126C106.474 30.5433 105.675 30.0462 105.072 29.4212C104.468 28.7962 104.049 28.1037 103.814 27.3438L107.287 26.5021C107.444 26.8217 107.671 27.1378 107.969 27.4503C108.268 27.7699 108.669 28.0327 109.173 28.2386C109.684 28.4517 110.327 28.5582 111.101 28.5582C112.195 28.5582 113.101 28.2919 113.818 27.7592C114.535 27.2337 114.894 26.3672 114.894 25.1598V22.0597H114.702C114.503 22.4574 114.212 22.8658 113.829 23.2848C113.452 23.7038 112.952 24.0554 112.327 24.3395C111.709 24.6236 110.931 24.7656 109.993 24.7656C108.736 24.7656 107.596 24.4709 106.574 23.8814C105.558 23.2848 104.748 22.397 104.145 21.218C103.548 20.032 103.25 18.5476 103.25 16.7649C103.25 14.968 103.548 13.4517 104.145 12.2159C104.748 10.973 105.562 10.032 106.584 9.39276C107.607 8.74645 108.747 8.4233 110.004 8.4233C110.963 8.4233 111.751 8.58665 112.369 8.91335C112.994 9.23295 113.491 9.62003 113.861 10.0746C114.23 10.522 114.51 10.9446 114.702 11.3423H114.915V8.63636H118.719V25.2663C118.719 26.6655 118.385 27.8232 117.717 28.7393C117.05 29.6555 116.137 30.3409 114.979 30.7955C113.822 31.25 112.508 31.4773 111.037 31.4773ZM111.069 21.7401C111.886 21.7401 112.582 21.5412 113.157 21.1435C113.733 20.7457 114.17 20.174 114.468 19.4283C114.766 18.6825 114.915 17.7876 114.915 16.7436C114.915 15.7138 114.766 14.8118 114.468 14.0376C114.177 13.2635 113.743 12.6634 113.168 12.2372C112.6 11.804 111.9 11.5874 111.069 11.5874C110.21 11.5874 109.493 11.8111 108.917 12.2585C108.342 12.706 107.909 13.3203 107.618 14.1016C107.327 14.8757 107.181 15.7564 107.181 16.7436C107.181 17.745 107.327 18.6222 107.618 19.375C107.916 20.1207 108.353 20.7031 108.928 21.1222C109.51 21.5341 110.224 21.7401 111.069 21.7401ZM127.38 25.3303C126.343 25.3303 125.409 25.1456 124.578 24.7763C123.754 24.3999 123.101 23.8459 122.618 23.1143C122.142 22.3828 121.904 21.4808 121.904 20.4084C121.904 19.4851 122.074 18.7216 122.415 18.1179C122.756 17.5142 123.221 17.0312 123.811 16.669C124.4 16.3068 125.064 16.0334 125.803 15.8487C126.549 15.657 127.319 15.5185 128.115 15.4332C129.074 15.3338 129.851 15.245 130.448 15.1669C131.045 15.0817 131.478 14.9538 131.748 14.7834C132.025 14.6058 132.163 14.3324 132.163 13.9631V13.8991C132.163 13.0966 131.925 12.4751 131.449 12.0348C130.974 11.5945 130.288 11.3743 129.393 11.3743C128.449 11.3743 127.699 11.5803 127.145 11.9922C126.599 12.4041 126.229 12.8906 126.037 13.4517L122.437 12.9403C122.721 11.946 123.189 11.1151 123.843 10.4474C124.496 9.77273 125.295 9.26847 126.24 8.93466C127.184 8.59375 128.229 8.4233 129.372 8.4233C130.16 8.4233 130.945 8.51562 131.726 8.70028C132.508 8.88494 133.221 9.19034 133.868 9.61648C134.514 10.0355 135.032 10.6072 135.423 11.3317C135.821 12.0561 136.02 12.9616 136.02 14.0483V25H132.312V22.7521H132.184C131.95 23.2067 131.62 23.6328 131.194 24.0305C130.775 24.4212 130.246 24.7372 129.606 24.9787C128.974 25.2131 128.232 25.3303 127.38 25.3303ZM128.381 22.4964C129.155 22.4964 129.827 22.3437 130.395 22.0384C130.963 21.7259 131.4 21.3139 131.705 20.8026C132.018 20.2912 132.174 19.7337 132.174 19.13V17.2017C132.053 17.3011 131.847 17.3935 131.556 17.4787C131.272 17.5639 130.952 17.6385 130.597 17.7024C130.242 17.7663 129.89 17.8232 129.542 17.8729C129.194 17.9226 128.893 17.9652 128.637 18.0007C128.062 18.0788 127.547 18.2067 127.092 18.3842C126.638 18.5618 126.279 18.8104 126.016 19.13C125.753 19.4425 125.622 19.8473 125.622 20.3445C125.622 21.0547 125.881 21.5909 126.4 21.9531C126.918 22.3153 127.579 22.4964 128.381 22.4964Z" fill="#141414"/>
<defs>
<clipPath id="clip0_7_724">
<rect width="21" height="20.0616" fill="white" transform="translate(3.5 3.5)"/>
</clipPath>
</defs>
</svg>
