<svg width="16" height="15" viewBox="0 0 16 15" fill="none" xmlns="http://www.w3.org/2000/svg">
<path d="M10.7965 9.50351L10.4169 9.88089C10.4169 9.88089 9.51478 10.7779 7.05228 8.32941C4.58977 5.88088 5.49193 4.98385 5.49193 4.98385L5.73094 4.74619C6.31974 4.16074 6.37524 3.2208 5.86154 2.53461L4.81072 1.13094C4.17491 0.281636 2.94631 0.169443 2.21755 0.894063L0.909549 2.19464C0.548198 2.55394 0.306051 3.0197 0.335414 3.53638C0.410537 4.85822 1.0086 7.70225 4.34581 11.0205C7.88479 14.5394 11.2054 14.6792 12.5632 14.5527C12.9927 14.5126 13.3663 14.2939 13.6673 13.9946L14.8511 12.8175C15.6501 12.023 15.4249 10.6608 14.4024 10.105L12.8104 9.23955C12.139 8.87461 11.3211 8.98182 10.7965 9.50351Z" fill="white"/>
</svg>
